<svg width="1728" height="1117" viewBox="0 0 1728 1117" fill="none" xmlns="http://www.w3.org/2000/svg">
<g clip-path="url(#clip0_2_202)">
<path d="M1728 0H0V1117H1728V0Z" fill="#792EE9"/>
<g filter="url(#filter0_f_2_202)">
<path d="M1297.92 832.165C1676.48 832.165 1983.36 534.607 1983.36 167.55C1983.36 -199.507 1676.48 -497.065 1297.92 -497.065C919.362 -497.065 612.48 -199.507 612.48 167.55C612.48 534.607 919.362 832.165 1297.92 832.165Z" fill="#0B2742"/>
<path d="M1274.88 1550.77C1653.44 1550.77 1960.32 1253.21 1960.32 886.153C1960.32 519.097 1653.44 221.538 1274.88 221.538C896.322 221.538 589.44 519.097 589.44 886.153C589.44 1253.21 896.322 1550.77 1274.88 1550.77Z" fill="#792EE9"/>
<path d="M1605.12 1403.7C1983.68 1403.7 2290.56 1106.14 2290.56 739.082C2290.56 372.025 1983.68 74.4667 1605.12 74.4667C1226.56 74.4667 919.68 372.025 919.68 739.082C919.68 1106.14 1226.56 1403.7 1605.12 1403.7Z" fill="#0B2742"/>
<path d="M63.3599 958.758C441.918 958.758 748.8 661.2 748.8 294.143C748.8 -72.9134 441.918 -370.472 63.3599 -370.472C-315.198 -370.472 -622.08 -72.9134 -622.08 294.143C-622.08 661.2 -315.198 958.758 63.3599 958.758Z" fill="#0B2742"/>
<path d="M629.76 843.335C1008.32 843.335 1315.2 545.777 1315.2 178.72C1315.2 -188.337 1008.32 -485.895 629.76 -485.895C251.202 -485.895 -55.6802 -188.337 -55.6802 178.72C-55.6802 545.777 251.202 843.335 629.76 843.335Z" fill="#792EE9"/>
<path d="M885.12 1143.06C1263.68 1143.06 1570.56 845.505 1570.56 478.448C1570.56 111.392 1263.68 -186.167 885.12 -186.167C506.562 -186.167 199.68 111.392 199.68 478.448C199.68 845.505 506.562 1143.06 885.12 1143.06Z" fill="#0B2742"/>
</g>
</g>
<defs>
<filter id="filter0_f_2_202" x="-944.08" y="-819.065" width="3556.64" height="2691.83" filterUnits="userSpaceOnUse" color-interpolation-filters="sRGB">
<feFlood flood-opacity="0" result="BackgroundImageFix"/>
<feBlend mode="normal" in="SourceGraphic" in2="BackgroundImageFix" result="shape"/>
<feGaussianBlur stdDeviation="161" result="effect1_foregroundBlur_2_202"/>
</filter>
<clipPath id="clip0_2_202">
<rect width="1728" height="1117" fill="white"/>
</clipPath>
</defs>
</svg>
